<?xml version="1.0" encoding="UTF-8" standalone="no"?>
<svg width="40px" height="39px" viewBox="0 0 40 39" version="1.1" xmlns="http://www.w3.org/2000/svg" xmlns:xlink="http://www.w3.org/1999/xlink" xmlns:sketch="http://www.bohemiancoding.com/sketch/ns">
    <!-- Generator: Sketch 3.3.2 (12043) - http://www.bohemiancoding.com/sketch -->
    <title>Artboard 1 Copy 9</title>
    <desc>Created with Sketch.</desc>
    <defs></defs>
    <g id="Page-1" stroke="none" stroke-width="1" fill="none" fill-rule="evenodd" sketch:type="MSPage">
        <g id="Artboard-1-Copy-9" sketch:type="MSArtboardGroup" fill="#333333">
            <g id="Imported-Layers" sketch:type="MSLayerGroup" transform="translate(-1.000000, -1.000000)">
                <path d="M35.090625,37.6352941 L34.846,37.6352941 C34.58,37.6352941 34.363875,37.4188235 34.363875,37.1623529 L34.363875,23.4541176 C34.363875,23.1905882 34.19525,22.8423529 33.998125,22.6729412 L21.50325,12.2635294 C21.301375,12.0988235 20.968875,12.0988235 20.767,12.2635294 L8.322,22.6211765 C8.1225,22.7929412 7.95625,23.1411765 7.95625,23.4023529 L7.95625,37.1623529 C7.95625,37.4188235 7.7425,37.6352941 7.474125,37.6352941 L7.246125,37.6352941 C6.9825,37.6352941 6.766375,37.8470588 6.766375,38.1082353 L6.766375,39.5247059 C6.766375,39.7858824 6.9825,39.9976471 7.246125,39.9976471 L35.090625,39.9976471 C35.356625,39.9976471 35.57275,39.7858824 35.57275,39.5247059 L35.57275,38.1082353 C35.57275,37.8470588 35.356625,37.6352941 35.090625,37.6352941 L35.090625,37.6352941 Z M26.125,37.1764706 C26.125,37.4329412 25.91125,37.6447059 25.65,37.6447059 L19.475,37.6447059 C19.21375,37.6447059 19,37.4329412 19,37.1764706 L19,26.3529412 C19,26.0917647 19.21375,25.88 19.475,25.88 L25.65,25.88 C25.91125,25.88 26.125,26.0917647 26.125,26.3529412 L26.125,37.1764706 L26.125,37.1764706 Z" id="Fill-1" sketch:type="MSShapeGroup"></path>
                <path d="M40.21825,18.4023529 L21.700375,2.48 C21.500875,2.30823529 21.173125,2.30823529 20.973625,2.48 L11.174375,10.9082353 L11.174375,7.36941176 C11.174375,7.11058824 10.95825,6.89647059 10.694625,6.89647059 L8.053625,6.89647059 C7.787625,6.89647059 7.57625,7.11058824 7.57625,7.36941176 L7.583375,13.9952941 L2.53175,18.3435294 C2.33225,18.5129412 2.320375,18.8023529 2.510375,18.9858824 L5.222625,21.6611765 C5.412625,21.8447059 5.7285,21.8588235 5.930375,21.6894118 L20.976,9.16705882 C21.177875,9 21.510375,9 21.709875,9.16705882 L36.819625,21.7529412 C37.0215,21.9176471 37.337375,21.9105882 37.527375,21.72 L40.239625,19.0517647 C40.42725,18.8635294 40.41775,18.5741176 40.21825,18.4023529" id="Fill-2" sketch:type="MSShapeGroup"></path>
            </g>
        </g>
    </g>
</svg>