<?xml version="1.0" encoding="UTF-8" standalone="no"?>
<svg width="91px" height="90px" viewBox="0 0 91 90" version="1.1" xmlns="http://www.w3.org/2000/svg" xmlns:xlink="http://www.w3.org/1999/xlink" xmlns:sketch="http://www.bohemiancoding.com/sketch/ns">
    <!-- Generator: Sketch 3.4 (15588) - http://www.bohemiancoding.com/sketch -->
    <title>button_1</title>
    <desc>Created with Sketch.</desc>
    <defs></defs>
    <g id="WEB" stroke="none" stroke-width="1" fill="none" fill-rule="evenodd" sketch:type="MSPage">
        <g id="Moderator2" sketch:type="MSArtboardGroup" transform="translate(-349.000000, -709.000000)">
            <g id="Buttons" sketch:type="MSLayerGroup" transform="translate(349.000000, 709.000000)">
                <g id="button_1" sketch:type="MSShapeGroup">
                    <path d="M45.5027,0 C20.65094,0 0.5,20.1467 0.5,45.00002 C0.5,69.85332 20.65094,90.00002 45.5027,90.00002 C70.35447,90.00002 90.5,69.85332 90.5,45.00002 C90.5,20.1467 70.35447,0 45.5027,0 L45.5027,0 Z" id="Shape" fill="#E41010"></path>
                    <path d="M31.6969,25.012 C33.3670241,25.0112988 34.9664181,25.6862162 36.1312,26.8832 L45.4973,36.2553 L54.8688,26.8832 C55.988713,25.7309038 57.5131428,25.0597938 59.11924,25.012 C61.6686905,24.9362808 64.0030754,26.4337081 64.9973893,28.7826297 C65.9917032,31.1315513 65.4419297,33.8500082 63.61302,35.6279 L54.24692,44.99462 L63.61302,54.36672 C65.2156935,55.9204934 65.8566642,58.2174442 65.2901006,60.3766222 C64.723537,62.5358001 63.0373842,64.2220454 60.8783329,64.788632 C58.7192816,65.3552186 56.422472,64.7141976 54.8688,63.11142 L45.4973,53.74472 L36.1312,63.11142 C34.577528,64.7141976 32.2807184,65.3552186 30.1216671,64.788632 C27.9626158,64.2220454 26.276463,62.5358001 25.7098994,60.3766222 C25.1433358,58.2174442 25.7843065,55.9204934 27.38698,54.36672 L36.75849,44.99462 L27.38698,35.6279 C25.5841069,33.8731013 25.0239913,31.2009269 25.9704075,28.8697793 C26.9168236,26.5386317 29.1810902,25.0132581 31.6969,25.012 L31.6969,25.012 Z" id="Path" fill="#FFFFFF"></path>
                </g>
            </g>
        </g>
    </g>
</svg>