<?xml version="1.0" encoding="UTF-8" standalone="no"?>
<svg width="90px" height="90px" viewBox="0 0 90 90" version="1.1" xmlns="http://www.w3.org/2000/svg" xmlns:xlink="http://www.w3.org/1999/xlink" xmlns:sketch="http://www.bohemiancoding.com/sketch/ns">
    <!-- Generator: Sketch 3.4 (15588) - http://www.bohemiancoding.com/sketch -->
    <title>button_2</title>
    <desc>Created with Sketch.</desc>
    <defs></defs>
    <g id="WEB" stroke="none" stroke-width="1" fill="none" fill-rule="evenodd" sketch:type="MSPage">
        <g id="Moderator2" sketch:type="MSArtboardGroup" transform="translate(-555.000000, -710.000000)">
            <g id="Buttons" sketch:type="MSLayerGroup" transform="translate(349.000000, 709.000000)">
                <g id="button_2" transform="translate(206.000000, 1.000000)" sketch:type="MSShapeGroup">
                    <path d="M45.00001,0 C20.14674,0 0,20.1509 0,45.00272 C0,69.85452 20.14674,90.00002 45.00001,90.00002 C69.85326,90.00002 90,69.85452 90,45.00272 C90,20.1509 69.85326,0 45.00001,0 L45.00001,0 Z" id="Shape" fill="#00CE20"></path>
                    <path d="M63.45212,26.7247 C66.0017832,26.6489283 68.3363847,28.146288 69.3307695,30.4951305 C70.3251543,32.8439731 69.7752812,35.5623315 67.94616,37.3401 L43.93462,61.35552 C42.7970648,62.9637068 40.9613463,63.9337622 38.99171,63.96752 C38.971893,63.9709501 38.9520595,63.9742834 38.93221,63.97752 C38.905177,63.9776972 38.878143,63.9776972 38.85111,63.97752 C36.8040218,64.0085503 34.8742545,63.0245032 33.69727,61.34942 L22.05385,49.70662 C20.2476717,47.95318 19.6846804,45.2799639 20.6302568,42.9470616 C21.5758333,40.6141593 23.8412405,39.0872175 26.35862,39.086 C28.0314952,39.0852356 29.6333165,39.7621915 30.79858,40.9624 L38.81866,48.98202 L59.20142,28.6005 C60.3214019,27.4482649 61.8459294,26.7771904 63.45213,26.7294 L63.45212,26.7247 Z" id="Path" fill="#FFFFFF"></path>
                </g>
            </g>
        </g>
    </g>
</svg>